<svg width="414" height="460" viewBox="0 0 414 460" fill="none" xmlns="http://www.w3.org/2000/svg">
<mask id="mask0_1002_109" style="mask-type:alpha" maskUnits="userSpaceOnUse" x="25" y="0" width="206" height="183">
<rect x="25.333" y="88.6182" width="104.259" height="177" transform="rotate(-58 25.333 88.6182)" fill="#C4C4C4"/>
</mask>
<g mask="url(#mask0_1002_109)">
<path opacity="0.4" d="M37.847 291.267C27.72 248.03 34.1815 200.892 59.6176 160.185C110.225 79.1969 217.017 54.5419 298.006 105.149C378.995 155.756 403.65 262.549 353.042 343.538C327.712 384.074 288.367 410.429 245.237 420.387" stroke="white" stroke-width="4" stroke-miterlimit="10"/>
</g>
<path opacity="0.4" d="M84.2 130.004C115.5 98.5037 158.9 79.0037 206.9 79.0037C302.4 79.0037 379.9 156.504 379.9 252.004C379.9 347.504 302.4 425.004 206.9 425.004C159.1 425.004 115.9 405.604 84.6 374.304" stroke="white" stroke-width="3" stroke-miterlimit="10"/>
<path d="M84.2 130.004C115.5 98.5037 158.9 79.0037 206.9 79.0037C302.4 79.0037 379.9 156.504 379.9 252.004C379.9 347.504 302.4 425.004 206.9 425.004C159.1 425.004 115.9 405.604 84.6 374.304" stroke="white" stroke-width="2" stroke-miterlimit="10" stroke-dasharray="10 1000"/>
<path d="M84 125.004C80.7 125.004 78 127.704 78 131.004C78 134.304 80.7 137.004 84 137.004C87.3 137.004 90 134.304 90 131.004C90 127.704 87 125.004 84 125.004Z" fill="#0092FF"/>
<path d="M84 125.004C80.7 125.004 78 127.704 78 131.004C78 134.304 80.7 137.004 84 137.004C87.3 137.004 90 134.304 90 131.004C90 127.704 87 125.004 84 125.004Z" stroke="white" stroke-width="2" stroke-miterlimit="10"/>
<path d="M206.8 74.0037C203.5 74.0037 200.8 76.7037 200.8 80.0037C200.8 83.3037 203.5 86.0037 206.8 86.0037C210.1 86.0037 212.8 83.3037 212.8 80.0037C212.8 76.7037 210.1 74.0037 206.8 74.0037Z" fill="#0092FF"/>
<path d="M206.8 74.0037C203.5 74.0037 200.8 76.7037 200.8 80.0037C200.8 83.3037 203.5 86.0037 206.8 86.0037C210.1 86.0037 212.8 83.3037 212.8 80.0037C212.8 76.7037 210.1 74.0037 206.8 74.0037Z" stroke="white" stroke-width="2" stroke-miterlimit="10"/>
<path d="M332 130.004C328.7 130.004 326 132.704 326 136.004C326 139.304 328.7 142.004 332 142.004C335.3 142.004 338 139.304 338 136.004C338 132.704 335 130.004 332 130.004Z" fill="#0092FF"/>
<path d="M332 130.004C328.7 130.004 326 132.704 326 136.004C326 139.304 328.7 142.004 332 142.004C335.3 142.004 338 139.304 338 136.004C338 132.704 335 130.004 332 130.004Z" stroke="white" stroke-width="2" stroke-miterlimit="10"/>
<path d="M380 250.004C376.7 250.004 374 252.704 374 256.004C374 259.304 376.7 262.004 380 262.004C383.3 262.004 386 259.304 386 256.004C386 252.704 383 250.004 380 250.004Z" fill="#0092FF"/>
<path d="M380 250.004C376.7 250.004 374 252.704 374 256.004C374 259.304 376.7 262.004 380 262.004C383.3 262.004 386 259.304 386 256.004C386 252.704 383 250.004 380 250.004Z" stroke="white" stroke-width="2" stroke-miterlimit="10"/>
<path d="M335 360.004C331.7 360.004 329 362.704 329 366.004C329 369.304 331.7 372.004 335 372.004C338.3 372.004 341 369.304 341 366.004C341 362.704 340 360.004 335 360.004Z" fill="#0092FF"/>
<path d="M335 360.004C331.7 360.004 329 362.704 329 366.004C329 369.304 331.7 372.004 335 372.004C338.3 372.004 341 369.304 341 366.004C341 362.704 340 360.004 335 360.004Z" stroke="white" stroke-width="2" stroke-miterlimit="10"/>
<path d="M210 420.004C206.7 420.004 204 422.704 204 426.004C204 429.304 206.7 432.004 210 432.004C213.3 432.004 216 429.304 216 426.004C216 422.704 215 420.004 210 420.004Z" fill="#0092FF"/>
<path d="M210 420.004C206.7 420.004 204 422.704 204 426.004C204 429.304 206.7 432.004 210 432.004C213.3 432.004 216 429.304 216 426.004C216 422.704 215 420.004 210 420.004Z" stroke="white" stroke-width="2" stroke-miterlimit="10"/>
<path d="M88 369.004C84.7 369.004 82 371.704 82 375.004C82 378.304 84.7 381.004 88 381.004C91.3 381.004 94 378.304 94 375.004C94 371.704 92 369.004 88 369.004Z" fill="#0092FF"/>
<path d="M88 369.004C84.7 369.004 82 371.704 82 375.004C82 378.304 84.7 381.004 88 381.004C91.3 381.004 94 378.304 94 375.004C94 371.704 92 369.004 88 369.004Z" stroke="white" stroke-width="2" stroke-miterlimit="10"/>
</svg>
